<?xml version="1.0" encoding="utf-8"?>
<!-- Generator: Adobe Illustrator 18.1.1, SVG Export Plug-In . SVG Version: 6.00 Build 0)  -->
<svg version="1.1" id="Layer_1" xmlns="http://www.w3.org/2000/svg" xmlns:xlink="http://www.w3.org/1999/xlink" x="0px" y="0px"
	 viewBox="0 0 68 88" enable-background="new 0 0 68 88" xml:space="preserve">
<path d="M65,0H3C2.4,0,2,0.4,2,1v86c0,0.6,0.4,1,1,1h62c0.6,0,1-0.4,1-1V1C66,0.4,65.6,0,65,0z M64,86H4V2h60V86z"/>
<g>
	<path d="M11.9,55.9l10.3-26.7H26l10.9,26.7h-4l-3.1-8.1H18.6l-2.9,8.1H11.9z M19.6,44.9h9.1l-2.8-7.4c-0.8-2.2-1.5-4.1-1.9-5.5
		c-0.3,1.7-0.8,3.4-1.4,5.1L19.6,44.9z"/>
	<path d="M51.9,53.5c-1.2,1-2.4,1.8-3.5,2.2c-1.1,0.4-2.3,0.6-3.6,0.6c-2.1,0-3.8-0.5-4.9-1.6c-1.1-1-1.7-2.4-1.7-4
		c0-0.9,0.2-1.8,0.6-2.6c0.4-0.8,1-1.4,1.7-1.9c0.7-0.5,1.5-0.8,2.4-1.1c0.6-0.2,1.6-0.3,2.9-0.5c2.6-0.3,4.6-0.7,5.8-1.1
		c0-0.4,0-0.7,0-0.9c0-1.3-0.3-2.3-0.9-2.8c-0.8-0.7-2.1-1.1-3.7-1.1c-1.5,0-2.7,0.3-3.4,0.8c-0.7,0.5-1.3,1.5-1.6,2.9L38.8,42
		c0.3-1.4,0.8-2.5,1.4-3.3c0.7-0.8,1.6-1.5,2.9-1.9c1.3-0.5,2.7-0.7,4.4-0.7c1.7,0,3,0.2,4,0.6s1.8,0.9,2.3,1.5
		c0.5,0.6,0.8,1.3,1,2.2c0.1,0.6,0.2,1.6,0.2,3v4.4c0,3,0.1,5,0.2,5.8s0.4,1.6,0.8,2.3h-3.4C52.3,55.2,52,54.4,51.9,53.5z
		 M51.7,46.2c-1.2,0.5-3,0.9-5.4,1.2c-1.3,0.2-2.3,0.4-2.9,0.7c-0.6,0.2-1,0.6-1.3,1.1c-0.3,0.5-0.5,1-0.5,1.6c0,0.9,0.3,1.6,1,2.2
		c0.7,0.6,1.6,0.9,2.9,0.9c1.3,0,2.4-0.3,3.4-0.8c1-0.6,1.7-1.3,2.2-2.3c0.4-0.7,0.5-1.8,0.5-3.3V46.2z"/>
</g>
</svg>
