<?xml version="1.0" encoding="utf-8"?>
<!-- Generator: Adobe Illustrator 18.1.1, SVG Export Plug-In . SVG Version: 6.00 Build 0)  -->
<svg version="1.1" id="Layer_1" xmlns="http://www.w3.org/2000/svg" xmlns:xlink="http://www.w3.org/1999/xlink" x="0px" y="0px"
	 viewBox="0 0 64 88" enable-background="new 0 0 64 88" xml:space="preserve">
<g>
	<path d="M63,0H1C0.4,0,0,0.4,0,1v86c0,0.6,0.4,1,1,1h62c0.6,0,1-0.4,1-1V1C64,0.4,63.6,0,63,0z M62,86H2V2h60V86z"/>
</g>
<path d="M54.6,22c-10-5-19.1-0.9-21.8,0.6c-0.5,0.3-1.1,0.3-1.6,0C28.4,21.1,19.2,17,9.2,22c-0.6,0.3-1,0.9-1,1.6v0.2v27V51
	c0,0,0,0,0,0c0.1,0.5,0.7,0.8,1.2,0.6c9.7-4.7,19.1-0.6,21.7,0.7c0.5,0.2,1,0.2,1.5,0c2.6-1.4,11.9-5.4,21.6-0.8
	c0.5,0.3,1.1,0,1.3-0.6c0,0,0,0,0,0v-0.3V23.8v-0.1C55.6,23,55.2,22.3,54.6,22z M19.4,46.3c-3.3,0-6.4,0.7-9.4,1.9V23.6
	c0,0,0-0.1,0-0.1c3-1.5,6.1-2.3,9.4-2.3c5.2,0,9.4,1.9,10.9,2.8c0.4,0.2,0.9,0.3,1.4,0.4v24.9C29.6,48.3,25.1,46.3,19.4,46.3z
	 M53.9,48.2c-3-1.3-6.2-1.9-9.4-1.9c-5.7,0-10.2,2-12.3,3.1V24.5c0.5,0,0.9-0.2,1.4-0.4c1.5-0.8,5.7-2.8,10.9-2.8
	c3.2,0,6.4,0.8,9.3,2.2c0.1,0,0.1,0.1,0.1,0.1V48.2z"/>
<path d="M28.7,27.4c0,0-0.1,0-0.1,0c-3.3-1.4-10-3.3-17.3-0.5c-0.2,0.1-0.3,0-0.4-0.2c-0.1-0.2,0-0.3,0.2-0.4
	c7.5-2.9,14.4-0.9,17.8,0.5c0.2,0.1,0.2,0.2,0.2,0.4C29,27.3,28.9,27.4,28.7,27.4z"/>
<path d="M35.5,27c-0.1,0-0.2-0.1-0.3-0.2c-0.1-0.2,0-0.3,0.2-0.4c3.9-1.5,10.1-2.7,16.7-0.2c0.2,0.1,0.2,0.2,0.2,0.4
	c-0.1,0.2-0.2,0.2-0.4,0.2c-6.5-2.5-12.5-1.3-16.3,0.2C35.6,27,35.6,27,35.5,27z"/>
<path d="M28.7,30.5C28.7,30.5,28.7,30.5,28.7,30.5c-3.4-1.4-10.1-3.3-17.5-0.5c-0.1,0-0.2,0-0.3-0.1c0-0.1,0-0.2,0.1-0.3
	c7.5-2.9,14.3-0.9,17.7,0.5c0.1,0,0.2,0.2,0.1,0.3C28.9,30.4,28.8,30.5,28.7,30.5z"/>
<path d="M35.5,30.1c-0.1,0-0.2-0.1-0.2-0.1c0-0.1,0-0.2,0.1-0.3c3.9-1.5,10-2.7,16.7-0.2c0.1,0,0.2,0.2,0.1,0.3S52.1,30,52,29.9
	C45.5,27.5,39.5,28.7,35.5,30.1C35.6,30.1,35.6,30.1,35.5,30.1z"/>
<path d="M28.7,31.8C28.7,31.8,28.7,31.8,28.7,31.8c-3.4-1.4-10.1-3.3-17.5-0.5c-0.1,0-0.2,0-0.3-0.1s0-0.2,0.1-0.3
	c7.5-2.9,14.3-0.9,17.7,0.5c0.1,0,0.2,0.2,0.1,0.3C28.9,31.7,28.8,31.8,28.7,31.8z"/>
<path d="M35.5,31.4c-0.1,0-0.2-0.1-0.2-0.1c0-0.1,0-0.2,0.1-0.3c3.9-1.5,10-2.7,16.7-0.2c0.1,0,0.2,0.2,0.1,0.3s-0.2,0.2-0.3,0.1
	C45.5,28.7,39.5,29.9,35.5,31.4C35.6,31.4,35.6,31.4,35.5,31.4z"/>
<path d="M28.7,33C28.7,33,28.7,33,28.7,33c-3.4-1.4-10.1-3.3-17.5-0.5c-0.1,0-0.2,0-0.3-0.1s0-0.2,0.1-0.3
	c7.5-2.9,14.3-0.9,17.7,0.5c0.1,0,0.2,0.2,0.1,0.3C28.9,33,28.8,33,28.7,33z"/>
<path d="M35.5,32.7c-0.1,0-0.2-0.1-0.2-0.1c0-0.1,0-0.2,0.1-0.3c3.9-1.5,10-2.7,16.7-0.2c0.1,0,0.2,0.2,0.1,0.3s-0.2,0.2-0.3,0.1
	C45.5,30,39.5,31.2,35.5,32.7C35.6,32.7,35.6,32.7,35.5,32.7z"/>
<path d="M28.7,34.3C28.7,34.3,28.7,34.3,28.7,34.3c-3.4-1.4-10.1-3.3-17.5-0.5c-0.1,0-0.2,0-0.3-0.1c0-0.1,0-0.2,0.1-0.3
	c7.5-2.9,14.3-0.9,17.7,0.5c0.1,0,0.2,0.2,0.1,0.3C28.9,34.3,28.8,34.3,28.7,34.3z"/>
<path d="M35.5,34c-0.1,0-0.2-0.1-0.2-0.1c0-0.1,0-0.2,0.1-0.3c3.9-1.5,10-2.7,16.7-0.2c0.1,0,0.2,0.2,0.1,0.3c0,0.1-0.2,0.2-0.3,0.1
	C45.5,31.3,39.5,32.5,35.5,34C35.6,34,35.6,34,35.5,34z"/>
<path d="M28.7,35.6C28.7,35.6,28.7,35.6,28.7,35.6c-3.4-1.4-10.1-3.3-17.5-0.5c-0.1,0-0.2,0-0.3-0.1s0-0.2,0.1-0.3
	c7.5-2.9,14.3-0.9,17.7,0.5c0.1,0,0.2,0.2,0.1,0.3C28.9,35.6,28.8,35.6,28.7,35.6z"/>
<path d="M35.5,35.3c-0.1,0-0.2-0.1-0.2-0.1c0-0.1,0-0.2,0.1-0.3c3.9-1.5,10-2.7,16.7-0.2c0.1,0,0.2,0.2,0.1,0.3s-0.2,0.2-0.3,0.1
	C45.5,32.6,39.5,33.8,35.5,35.3C35.6,35.2,35.6,35.3,35.5,35.3z"/>
<path d="M28.7,36.9C28.7,36.9,28.7,36.9,28.7,36.9c-3.4-1.4-10.1-3.3-17.5-0.5c-0.1,0-0.2,0-0.3-0.1s0-0.2,0.1-0.3
	c7.5-2.9,14.3-0.9,17.7,0.5c0.1,0,0.2,0.2,0.1,0.3C28.9,36.8,28.8,36.9,28.7,36.9z"/>
<path d="M35.5,36.5c-0.1,0-0.2-0.1-0.2-0.1c0-0.1,0-0.2,0.1-0.3c3.9-1.5,10-2.7,16.7-0.2c0.1,0,0.2,0.2,0.1,0.3
	c0,0.1-0.2,0.2-0.3,0.1C45.5,33.9,39.5,35.1,35.5,36.5C35.6,36.5,35.6,36.5,35.5,36.5z"/>
<path d="M28.7,40.9C28.7,40.9,28.7,40.9,28.7,40.9c-3.4-1.4-10.1-3.3-17.5-0.5c-0.1,0-0.2,0-0.3-0.1s0-0.2,0.1-0.3
	c7.5-2.9,14.3-0.9,17.7,0.5c0.1,0,0.2,0.2,0.1,0.3C28.9,40.9,28.8,40.9,28.7,40.9z"/>
<path d="M35.5,40.6c-0.1,0-0.2-0.1-0.2-0.1c0-0.1,0-0.2,0.1-0.3c3.9-1.5,10-2.7,16.7-0.2c0.1,0,0.2,0.2,0.1,0.3s-0.2,0.2-0.3,0.1
	C45.5,37.9,39.5,39.1,35.5,40.6C35.6,40.6,35.6,40.6,35.5,40.6z"/>
<path d="M28.7,42.4C28.7,42.4,28.7,42.4,28.7,42.4c-3.4-1.4-10.1-3.3-17.5-0.5c-0.1,0-0.2,0-0.3-0.1s0-0.2,0.1-0.3
	c7.5-2.9,14.3-0.9,17.7,0.5c0.1,0,0.2,0.2,0.1,0.3C28.9,42.3,28.8,42.4,28.7,42.4z"/>
<path d="M35.5,42c-0.1,0-0.2-0.1-0.2-0.1c0-0.1,0-0.2,0.1-0.3c3.9-1.5,10-2.7,16.7-0.2c0.1,0,0.2,0.2,0.1,0.3c0,0.1-0.2,0.2-0.3,0.1
	C45.5,39.4,39.5,40.6,35.5,42C35.6,42,35.6,42,35.5,42z"/>
<path d="M28.7,43.9C28.7,43.9,28.7,43.9,28.7,43.9c-3.4-1.4-10.1-3.3-17.5-0.5c-0.1,0-0.2,0-0.3-0.1s0-0.2,0.1-0.3
	c7.5-2.9,14.3-0.9,17.7,0.5c0.1,0,0.2,0.2,0.1,0.3C28.9,43.8,28.8,43.9,28.7,43.9z"/>
<path d="M35.5,43.5c-0.1,0-0.2-0.1-0.2-0.1c0-0.1,0-0.2,0.1-0.3c3.9-1.5,10-2.7,16.7-0.2c0.1,0,0.2,0.2,0.1,0.3
	c0,0.1-0.2,0.2-0.3,0.1C45.5,40.8,39.5,42,35.5,43.5C35.6,43.5,35.6,43.5,35.5,43.5z"/>
<path d="M28.7,45.3C28.7,45.3,28.7,45.3,28.7,45.3c-3.4-1.4-10.1-3.3-17.5-0.5c-0.1,0-0.2,0-0.3-0.1s0-0.2,0.1-0.3
	c7.5-2.9,14.3-0.9,17.7,0.5c0.1,0,0.2,0.2,0.1,0.3C28.9,45.3,28.8,45.3,28.7,45.3z"/>
<path d="M35.5,45c-0.1,0-0.2-0.1-0.2-0.1c0-0.1,0-0.2,0.1-0.3c3.9-1.5,10-2.7,16.7-0.2c0.1,0,0.2,0.2,0.1,0.3c0,0.1-0.2,0.2-0.3,0.1
	C45.5,42.3,39.5,43.5,35.5,45C35.6,45,35.6,45,35.5,45z"/>
</svg>
