<?xml version="1.0" encoding="utf-8"?>
<!-- Generator: Adobe Illustrator 18.1.1, SVG Export Plug-In . SVG Version: 6.00 Build 0)  -->
<svg version="1.1" id="Layer_1" xmlns="http://www.w3.org/2000/svg" xmlns:xlink="http://www.w3.org/1999/xlink" x="0px" y="0px"
	 viewBox="230 0 438 600" enable-background="new 230 0 438 600" xml:space="preserve">
<g>
	<path d="M347.6,267.5l69.1-32.1v15.3l-52.3,22.9v0.3l52.3,22.9V312l-69.1-32.1V267.5z"/>
	<path d="M430.9,317.8l30.8-104.4h14.5l-30.8,104.4H430.9z"/>
	<path d="M553.8,280.4L484.6,312v-15.3l53.4-22.9v-0.3l-53.4-22.9v-15.3l69.1,31.7V280.4z"/>
</g>
<circle display="none" fill="none" stroke="#000000" stroke-width="14" stroke-miterlimit="10" cx="450.2" cy="204.8" r="97"/>
<path d="M661.4,0H238.6c-3.8,0-6.8,3.1-6.8,6.8v586.4c0,3.8,3.1,6.8,6.8,6.8h422.7c3.8,0,6.8-3.1,6.8-6.8V6.8
	C668.2,3.1,665.1,0,661.4,0z M298.3,11c4.1,0,7.5,3.4,7.5,7.5s-3.4,7.5-7.5,7.5s-7.5-3.4-7.5-7.5S294.2,11,298.3,11z M276.7,11
	c4.1,0,7.5,3.4,7.5,7.5s-3.4,7.5-7.5,7.5s-7.5-3.4-7.5-7.5S272.6,11,276.7,11z M255.1,11c4.1,0,7.5,3.4,7.5,7.5s-3.4,7.5-7.5,7.5
	c-4.1,0-7.5-3.4-7.5-7.5S251,11,255.1,11z M654.5,586.4H245.5V41h409.1V586.4z"/>
</svg>
