<?xml version="1.0" encoding="utf-8"?>
<!-- Generator: Adobe Illustrator 18.1.1, SVG Export Plug-In . SVG Version: 6.00 Build 0)  -->
<svg version="1.1" id="Layer_1" xmlns="http://www.w3.org/2000/svg" xmlns:xlink="http://www.w3.org/1999/xlink" x="0px" y="0px"
	 viewBox="0 0 64 88" enable-background="new 0 0 64 88" xml:space="preserve">
<g>
	<path d="M63,0H1C0.4,0,0,0.4,0,1v86c0,0.6,0.4,1,1,1h62c0.6,0,1-0.4,1-1V1C64,0.4,63.6,0,63,0z M62,86H2V2h60V86z"/>
	<rect x="16" y="10.7" width="32" height="2"/>
	<rect x="20" y="15.2" width="24" height="1"/>
	<rect x="12" y="23.2" width="40" height="1"/>
	<rect x="12" y="27.2" width="40" height="1"/>
	<rect x="12" y="31.2" width="40" height="1"/>
	<rect x="12" y="41.9" width="40" height="1"/>
	<rect x="12" y="45.9" width="40" height="1"/>
	<rect x="12" y="49.9" width="40" height="1"/>
	<rect x="12" y="60.6" width="40" height="1"/>
	<rect x="12" y="64.6" width="40" height="1"/>
	<rect x="12" y="68.6" width="40" height="1"/>
</g>
</svg>
