<?xml version="1.0" encoding="utf-8"?>
<!-- Generator: Adobe Illustrator 18.1.1, SVG Export Plug-In . SVG Version: 6.00 Build 0)  -->
<svg version="1.1" id="Layer_1" xmlns="http://www.w3.org/2000/svg" xmlns:xlink="http://www.w3.org/1999/xlink" x="0px" y="0px"
	 viewBox="0 0 64 88" enable-background="new 0 0 64 88" xml:space="preserve">
<g>
	<path d="M63,0H1C0.4,0,0,0.4,0,1v86c0,0.6,0.4,1,1,1h62c0.6,0,1-0.4,1-1V1C64,0.4,63.6,0,63,0z M62,86H2V2h60V86z"/>
</g>
<g>
	<path d="M50.6,38.1c0,1.4-1.1,2.5-2.5,2.5v7.5c0,1.4-1.1,2.5-2.5,2.5c-3.5-2.9-9.1-6.9-16-7.5c-2.3,0.8-3.1,3.5-1.6,5.1
		c-1.4,2.3,0.4,3.9,2.5,5.5c-1.2,2.4-6.3,2.4-8.1,0.8c-1.1-3.5-2.8-7-1.5-11.4h-2.4c-1.7,0-3.1-1.4-3.1-3.1v-3.8
		c0-1.7,1.4-3.1,3.1-3.1H28c7.5,0,13.8-4.4,17.6-7.5c1.4,0,2.5,1.1,2.5,2.5v7.5C49.5,35.6,50.6,36.7,50.6,38.1z M45.6,28.7
		c-5.1,3.9-10.1,6.2-15.1,6.7v5.3c5,0.6,10,2.8,15.1,6.7V28.7z"/>
</g>
</svg>
