<?xml version="1.0" encoding="utf-8"?>
<!-- Generator: Adobe Illustrator 18.1.1, SVG Export Plug-In . SVG Version: 6.00 Build 0)  -->
<svg version="1.1" id="Layer_1" xmlns="http://www.w3.org/2000/svg" xmlns:xlink="http://www.w3.org/1999/xlink" x="0px" y="0px"
	 viewBox="0 0 64 88" enable-background="new 0 0 64 88" xml:space="preserve">
<g>
	<path d="M63,0H1C0.4,0,0,0.4,0,1v86c0,0.6,0.4,1,1,1h62c0.6,0,1-0.4,1-1V1C64,0.4,63.6,0,63,0z M62,86H2V2h60V86z"/>
	<g>
		<path d="M20.6,64.8c0.1-0.9,0.1-1.7,0.2-2.6c0.5-8.5,1-17,1.5-25.5c0-0.2,0.1-0.4,0.2-0.6c2.3-2.5,4.8-4.8,7.6-6.8
			c0.2-0.2,0.4-0.2,0.6-0.1c3.5,1.6,7,3.1,10.5,4.6c0.2,0.1,0.3,0.2,0.4,0.5c0.4,3.5,0.3,6.9,0,10.4c0,0.2-0.1,0.3-0.2,0.5
			c-4.7,4.8-9.4,9.6-14.1,14.4c-1.8,1.8-3.6,3.7-5.4,5.5c-0.1,0.1-0.2,0.2-0.3,0.2c0-0.1,0.1-0.2,0.1-0.3c3.5-7.9,7-15.9,10.5-23.8
			c0.1-0.2,0.2-0.3,0.4-0.3c0.6-0.1,1.1-0.6,1.1-1.1c0.1-0.7-0.2-1.2-0.8-1.5c-0.6-0.3-1.2-0.1-1.6,0.4c-0.4,0.4-0.4,1.1-0.1,1.6
			c0.1,0.2,0.1,0.3,0,0.5c-3.5,7.9-7,15.9-10.6,23.8C20.7,64.6,20.6,64.7,20.6,64.8C20.6,64.8,20.6,64.8,20.6,64.8z"/>
		<path d="M38.6,25.4c1.7,0.8,3.5,1.6,5.2,2.3c1.1,0.4,1.7,1.2,1.8,2.3c0.1,1.2-0.4,2.2-1.4,2.8c-0.8,0.5-1.6,0.6-2.5,0.2
			c-3.6-1.6-7.2-3.2-10.8-4.8c-1.6-0.7-1.9-2.5-1.2-3.9c0.5-0.9,1.2-1.5,2.3-1.7c0.5-0.1,0.9,0.1,1.3,0.3
			C35.1,23.8,36.9,24.6,38.6,25.4z"/>
	</g>
</g>
</svg>
