<?xml version="1.0" encoding="utf-8"?>
<!-- Generator: Adobe Illustrator 18.1.1, SVG Export Plug-In . SVG Version: 6.00 Build 0)  -->
<svg version="1.1" id="Layer_1" xmlns="http://www.w3.org/2000/svg" xmlns:xlink="http://www.w3.org/1999/xlink" x="0px" y="0px"
	 viewBox="0 0 64 88" enable-background="new 0 0 64 88" xml:space="preserve">
<g>
	<g>
		<path d="M63,0H1C0.4,0,0,0.4,0,1v86c0,0.6,0.4,1,1,1h62c0.6,0,1-0.4,1-1V1C64,0.4,63.6,0,63,0z M62,86H2V2h60V86z"/>
	</g>
	<g>
		<path d="M20.9,17.1c2.4-1.6,5.4-2.3,9-2.3c4.7,0,8.5,1.1,11.6,3.3c3.1,2.2,4.6,5.5,4.6,9.9c0,2.7-0.7,4.9-2,6.8
			c-0.8,1.1-2.3,2.5-4.5,4.3l-2.2,1.7c-1.2,0.9-2,2-2.4,3.2c-0.2,0.8-0.4,2-0.4,3.6h-8.4c0.1-3.5,0.5-5.9,1-7.2
			c0.5-1.3,1.9-2.9,4.1-4.6l2.3-1.8c0.7-0.6,1.3-1.2,1.8-1.8c0.8-1.1,1.2-2.4,1.2-3.7c0-1.6-0.5-3-1.4-4.3c-0.9-1.3-2.6-1.9-5-1.9
			c-2.4,0-4.1,0.8-5.1,2.4c-1,1.6-1.5,3.2-1.5,4.9h-8.9C15,23.7,17,19.5,20.9,17.1z M26,51.8h9.2v8.9H26V51.8z"/>
	</g>
</g>
</svg>
